# xmcd CD database file
#
# Track frame offsets:
#	150
#	10155
#	30810
#	60037
#	68540
#	108827
#	126317
#	152800
#	179417
#
# Disc length: 2702 seconds
#
# Revision: 0
# Processed by: cddbd v1.5.1PL0 Copyright (c) Steve Scherf et al.
# Submitted via: CDex 1.51
#
DISCID=5f0a8c09
DTITLE=今給黎　博美 - ブライ「八玉の勇士伝説」
DYEAR=1991
DGENRE=Game
TTITLE0=Prologue
TTITLE1=The guardian octagon
TTITLE2=Cry me
TTITLE3=Pyramid
TTITLE4=The zias suite
TTITLE5=After the war
TTITLE6=Carry through
TTITLE7=Breathing
TTITLE8=On the horizon
EXTD=YEAR: 1991
EXTT0=
EXTT1=
EXTT2=
EXTT3=
EXTT4=
EXTT5=
EXTT6=
EXTT7=
EXTT8=
PLAYORDER=
